# xmcd
#
# Track frame offsets:
#	150
#	17776
#	34916
#	54672
#	74859
#	86290
#	101569
#	119722
#	135819
#	152738
#	170279
#	182562
#	203015
#
# Disc length: 2913 seconds
#
# Revision: 0
# Processed by: cddbd v1.5.2PL0 Copyright (c) Steve Scherf et al.
# Submitted via: audiograbber 1.83.01
#
DISCID=ad0b5f0d
DTITLE=Shonen Knife - Super Group
DYEAR=2010
DGENRE=Punk Pop
TTITLE0=Super Group
TTITLE1=Slug
TTITLE2=Muddy Bubbles Hell
TTITLE3=Deer Biscuits
TTITLE4=BBQ Party
TTITLE5=Pyramid Power
TTITLE6=Time Warp
TTITLE7=Na Na Na
TTITLE8=Your Guitar
TTITLE9=Jet
TTITLE10=Lazy Bone (live)
TTITLE11=Muddy Bubbles Hell (live)
TTITLE12=Riding On The Rocket (live)
EXTD=
EXTT0=
EXTT1=
EXTT2=
EXTT3=
EXTT4=
EXTT5=
EXTT6=
EXTT7=
EXTT8=
EXTT9=
EXTT10=
EXTT11=
EXTT12=
PLAYORDER=
